<svg xmlns="http://www.w3.org/2000/svg" viewBox="0 0 470 512"><path fill="currentColor" d="M327.6 0c-19.4 0-37.3 4.8-53.7 14.4-13.3 7.6-24.4 17.4-33.1 29.2-1.6 2.1-3 4.3-4.4 6.4l-1.8 3.2s0 0 0 0l-2-3.4c-1.4-2.1-2.8-4.3-4.4-6.4-8.7-11.7-19.9-21.5-33.1-29.2-16.7-9.4-34.5-14.2-53.9-14.2L0 0c0 10 1.1 18 3.4 24.4 2.7 5.9 6.4 10.3 11.2 13.5 4.6 2.8 11 5 19 6l19 1.4c-6 9.1-11.2 18.8-15.1 29.5-3.4 11.4-5.2 22.8-5.2 34.5l-.5 0 0 148.8c0 34 4.3 62.8 13 86.2 8 21.7 19.6 40.5 34.7 56.5 13.3 13.3 29.9 26.5 49.8 39.1l58.1 34.5c3 2.1 6.2 4.3 9.2 6.4l0 0c10.5 7.6 21 16 31.1 25.4 1.4 1.4 3 2.7 4.4 4.1 .5 .4 1.4 1.1 2 1.4 0 0 0 0 0 0s-.2 0 0 0c.5-.4 1.4-1.1 2-1.4 1.4-1.4 3-2.8 4.4-4.1 10.1-9.4 20.6-17.8 31.1-25.4l0 0c3-2.3 6.2-4.4 9.2-6.4L339 440c19.9-12.8 36.4-25.8 49.8-39.1 15.1-16 26.7-34.8 34.7-56.5 8.7-23.5 13-52.3 13-86.2l0-148.8-.5 0c0-11.7-1.8-23.1-5.2-34.5-4.1-10.7-9.1-20.6-15.1-29.5l19-1.4c8.2-1.1 14.4-3.2 19-6 5-3.2 8.7-7.6 11.2-13.5 2.3-6.4 3.4-14.4 3.4-24.4L326.9 0zM293.2 40l6.6-3c7.8-2.7 15.6-4.3 23.5-5.2 3.9-.4 7.6-.4 11.2 0 6.4 .5 13.2 2 20.4 4.3l1.8 .9c8.2 3.2 16 8.2 23.5 14.8l2.7 2.7c6.9 6.9 12.6 15.1 16.9 24.4 4.1 10.5 6 20.4 6 30.4s-2 20.1-6 29.9c-3.4 7.3-7.3 14.4-11.7 21.3-6 8.9-12.8 17.6-20.4 26-19.9 22-44.3 42.3-72.9 60.8l-36.1 21.2c-5.7 3.7-11.4 8-16.9 12.8-4.4 4.1-6.8 6.2-6.9 6.4-1.6-1.8-3.9-3.9-6.6-6.4-5.5-5-11.4-9.2-17.4-12.6l-36.1-21.2c-28.6-18.5-52.8-38.8-72.9-60.8-7.5-8.4-14.4-17.1-20.4-26-4.4-6.9-8.4-14-11.7-21.3-4.1-9.8-6-19.7-6-29.9s2-19.9 6-30.4c4.3-9.2 10-17.4 16.9-24.4l2.7-2.7c2.8-3.2 7.1-6.2 12.4-9.2s9.6-5.2 12.6-6.2c7.3-2.3 14-3.7 20.4-4.3 3.7-.2 7.5-.2 11.2 0 7.8 .9 15.6 2.5 23.5 5.2l6.6 3c6 2.8 12.1 6.9 17.8 12.3l4.3 4.3c3.9 3 8.7 11 14.8 23.8 2.8 6.9 4.6 14.4 5.2 22.6l.4 6-.4 6c0 7.8-1.8 15.3-5.2 22.6l-2.7 6c-3.2 7.3-8 13.9-14.8 19.9l-5.7 5.2c12.4 18.5 27.4 40.2 44.8 65.1l0 0s5.2-7.5 15.3-22.2c11.6-16.7 21.3-30.9 29.3-42.8l-5.7-5.2c-6.8-6-11.6-12.8-14.8-19.9l-2.7-6c-3.6-7.3-5.2-14.8-5.2-22.6l-.4-6 .4-6c.5-8 2.3-15.6 5.2-22.6l5-10.7c4.8-7.1 8-11.6 9.8-13.3l4.3-4.3c5.9-5.2 11.7-9.2 17.8-12.3zM133.3 285.7c0-5.3 .9-10.7 2.7-15.6l18.3 12.4c14.2 9.1 26.1 15.8 35.9 19.9 12.8 5.3 23.6 13.2 32.5 23.5 3.7 4.3 7.8 10.1 11.9 17.6 3.6-6.2 8.2-12.4 13.9-18.7 10.1-10.8 21.3-19 34-24.4 9.2-3.9 20.6-10.3 34-18.8 6.6-4.3 12.3-8.2 17.1-11.6 1.8 5 2.7 10.1 2.7 15.6 0 12.3-4.4 22.8-13.2 31.5-2.5 2.5-5 4.6-7.5 6.2-4.1 2.8-8.7 5.9-13.7 8.9-10 6.2-17.2 10.3-21.7 12.3-10.1 4.3-20.6 10-31.8 17.2l-13.5 9.8c-3-2.7-7.3-5.9-12.4-9.4-10.5-7.1-21.3-13-32.4-17.2-5-2-12.6-6.2-22.6-12.4l-13.3-8.9c-2.5-1.8-5-3.7-7.5-6.2-8.7-8.7-13.2-19.2-13.2-31.5zm34 132.8L154 409.6c-2.5-1.8-5-3.7-7.5-6.2-8.7-8.7-13.2-19.2-13.2-31.5s.9-10.7 2.7-15.6l18.3 12.4c14.2 9.1 26.1 15.8 35.9 19.9 12.8 5.3 23.6 13.2 32.5 23.5 3.7 4.3 7.8 10.1 11.9 17.6 3.6-6.2 8.2-12.4 13.9-18.7 10.1-10.8 21.3-19 34-24.4 9.2-3.9 20.6-10.3 34-18.8 6.6-4.3 12.3-8.2 17.1-11.6 1.8 5 2.7 10.1 2.7 15.6 0 12.3-4.4 22.8-13.2 31.5-2.5 2.5-5 4.6-7.5 6.2-4.1 2.8-8.7 5.9-13.7 8.9-10 6.2-17.2 10.3-21.7 12.3-10.1 4.3-20.6 10-31.8 17.2l-13.5 9.8c-3-2.7-7.3-5.9-12.4-9.4-10.5-7.1-21.3-13-32.4-17.2-5-2-12.6-6.2-22.6-12.4zm203-290.7c0-9.4-2.7-17.8-8.2-25.1-.7-.9-1.4-1.8-2.3-2.7-8.5-9.6-20.8-14.9-33.6-14.6-11 .4-20.4 4.4-28.4 12.3-8.2 8.4-12.4 18.3-12.4 29.9 0 2.7 .2 5.3 .7 7.8l83.2 0c.4-2.5 .7-5.2 .7-7.8zm-187 0c0-9.4-2.7-17.8-8.2-25.1-.7-.9-1.4-1.8-2.3-2.7-8.5-9.6-20.8-14.9-33.6-14.6-11 .4-20.4 4.4-28.4 12.3-8.2 8.4-12.4 18.3-12.4 29.9s.2 5.3 .7 7.8l83.2 0c.4-2.5 .7-5.2 .7-7.8z"/></svg>