<?xml version="1.0" encoding="UTF-8"?>
<svg xmlns="http://www.w3.org/2000/svg" style="display: none;">
<symbol id="athenacare-mark" viewBox="0 0 576 576">
<path fill="currentColor" d="M380.6 32C361.2 32 343.3 36.8 326.9 46.4C313.6 54 302.5 63.8 293.8 75.6C292.2 77.7 290.8 79.9 289.4 82L287.6 85.2C287.6 85.2 287.6 85.2 287.6 85.2L285.6 81.8C284.2 79.7 282.8 77.5 281.2 75.4C272.5 63.7 261.3 53.9 248.1 46.2C231.4 36.8 213.6 32 194.2 32L53 32C53 42 54.1 50 56.4 56.4C59.1 62.3 62.8 66.7 67.6 69.9C72.2 72.7 78.6 74.9 86.6 75.9L105.6 77.3C99.6 86.4 94.4 96.1 90.5 106.8C87.1 118.2 85.3 129.6 85.3 141.3L84.8 141.3L84.8 290.1C84.8 324.1 89.1 352.9 97.8 376.3C105.8 398 117.4 416.8 132.5 432.8C145.8 446.1 162.4 459.3 182.3 471.9L240.4 506.4C243.4 508.5 246.6 510.7 249.6 512.8L249.6 512.8C260.1 520.4 270.6 528.8 280.7 538.2C282.1 539.6 283.7 540.9 285.1 542.3C285.6 542.7 286.5 543.4 287.1 543.7C287.1 543.7 287.1 543.7 287.1 543.7C287.1 543.7 286.9 543.7 287.1 543.7C287.6 543.3 288.5 542.6 289.1 542.3C290.5 540.9 292.1 539.5 293.5 538.2C303.6 528.8 314.1 520.4 324.6 512.8L324.6 512.8C327.6 510.5 330.8 508.4 333.8 506.4L392 472C411.9 459.2 428.4 446.2 441.8 432.9C456.9 416.9 468.5 398.1 476.5 376.4C485.2 352.9 489.5 324.1 489.5 290.2L489.5 141.4L489 141.4C489 129.7 487.2 118.3 483.8 106.9C479.7 96.2 474.7 86.3 468.7 77.4L487.7 76C495.9 74.9 502.1 72.8 506.7 70C511.7 66.8 515.4 62.4 517.9 56.5C520.2 50.1 521.3 42.1 521.3 32.1L379.9 32zM346.2 72L352.8 69C360.6 66.3 368.4 64.7 376.3 63.8C380.2 63.4 383.9 63.4 387.5 63.8C393.9 64.3 400.7 65.8 407.9 68.1L409.7 69C417.9 72.2 425.7 77.2 433.2 83.8L435.9 86.5C442.8 93.4 448.5 101.6 452.8 110.9C456.9 121.4 458.8 131.3 458.8 141.3C458.8 151.3 456.8 161.4 452.8 171.2C449.4 178.5 445.5 185.6 441.1 192.5C435.1 201.4 428.3 210.1 420.7 218.5C400.8 240.5 376.4 260.8 347.8 279.3L311.7 300.5C306 304.2 300.3 308.5 294.8 313.3C290.4 317.4 288 319.5 287.9 319.7C286.3 317.9 284 315.8 281.3 313.3C275.8 308.3 269.9 304.1 263.9 300.7L227.8 279.5C199.2 261 175 240.7 154.9 218.7C147.4 210.3 140.5 201.6 134.5 192.7C130.1 185.8 126.1 178.7 122.8 171.4C118.7 161.6 116.8 151.7 116.8 141.5C116.8 131.3 118.8 121.6 122.8 111.1C127.1 101.9 132.8 93.7 139.7 86.7L142.4 84C145.2 80.8 149.5 77.8 154.8 74.8C160.1 71.8 164.4 69.6 167.4 68.6C174.7 66.3 181.4 64.9 187.8 64.3C191.5 64.1 195.3 64.1 199 64.3C206.8 65.2 214.6 66.8 222.5 69.5L229.1 72.5C235.1 75.3 241.2 79.4 246.9 84.8L251.2 89.1C255.1 92.1 259.9 100.1 266 112.9C268.8 119.8 270.6 127.3 271.2 135.5L271.6 141.5L271.2 147.5C271.2 155.3 269.4 162.8 266 170.1L263.3 176.1C260.1 183.4 255.3 190 248.5 196L242.8 201.2C255.2 219.7 270.2 241.4 287.6 266.3L287.6 266.3C287.6 266.3 292.8 258.8 302.9 244.1C314.5 227.4 324.2 213.2 332.2 201.3L326.5 196.1C319.7 190.1 314.9 183.3 311.7 176.2L309 170.2C305.4 162.9 303.8 155.4 303.8 147.6L303.4 141.6L303.8 135.6C304.3 127.6 306.1 120 309 113L314 102.3C318.8 95.2 322 90.7 323.8 89L328.1 84.7C334 79.5 339.8 75.5 345.9 72.4zM186.3 317.7C186.3 312.4 187.2 307 189 302.1L207.3 314.5C221.5 323.6 233.4 330.3 243.2 334.4C256 339.7 266.8 347.6 275.7 357.9C279.4 362.2 283.5 368 287.6 375.5C291.2 369.3 295.8 363.1 301.5 356.8C311.6 346 322.8 337.8 335.5 332.4C344.7 328.5 356.1 322.1 369.5 313.6C376.1 309.3 381.8 305.4 386.6 302C388.4 307 389.3 312.1 389.3 317.6C389.3 329.9 384.9 340.4 376.1 349.1C373.6 351.6 371.1 353.7 368.6 355.3C364.5 358.1 359.9 361.2 354.9 364.2C344.9 370.4 337.7 374.5 333.2 376.5C323.1 380.8 312.6 386.5 301.4 393.7L287.9 403.5C284.9 400.8 280.6 397.6 275.5 394.1C265 387 254.2 381.1 243.1 376.9C238.1 374.9 230.5 370.7 220.5 364.5L207.2 355.6C204.7 353.8 202.2 351.9 199.7 349.4C191 340.7 186.5 330.2 186.5 317.9zM220.3 450.5L207 441.6C204.5 439.8 202 437.9 199.5 435.4C190.8 426.7 186.3 416.2 186.3 403.9C186.3 391.6 187.2 393.2 189 388.3L207.3 400.7C221.5 409.8 233.4 416.5 243.2 420.6C256 425.9 266.8 433.8 275.7 444.1C279.4 448.4 283.5 454.2 287.6 461.7C291.2 455.5 295.8 449.3 301.5 443C311.6 432.2 322.8 424 335.5 418.6C344.7 414.7 356.1 408.3 369.5 399.8C376.1 395.5 381.8 391.6 386.6 388.2C388.4 393.2 389.3 398.3 389.3 403.8C389.3 416.1 384.9 426.6 376.1 435.3C373.6 437.8 371.1 439.9 368.6 441.5C364.5 444.3 359.9 447.4 354.9 450.4C344.9 456.6 337.7 460.7 333.2 462.7C323.1 467 312.6 472.7 301.4 479.9L287.9 489.7C284.9 487 280.6 483.8 275.5 480.3C265 473.2 254.2 467.3 243.1 463.1C238.1 461.1 230.5 456.9 220.5 450.7zM423.3 159.8C423.3 150.4 420.6 142 415.1 134.7C414.4 133.8 413.7 132.9 412.8 132C404.3 122.4 392 117.1 379.2 117.4C368.2 117.8 358.8 121.8 350.8 129.7C342.6 138.1 338.4 148 338.4 159.6C338.4 162.3 338.6 164.9 339.1 167.4L422.3 167.4C422.7 164.9 423 162.2 423 159.6zM236.3 159.8C236.3 150.4 233.6 142 228.1 134.7C227.4 133.8 226.7 132.9 225.8 132C217.3 122.4 205 117.1 192.2 117.4C181.2 117.8 171.8 121.8 163.8 129.7C155.6 138.1 151.4 148 151.4 159.6C151.4 171.2 151.6 164.9 152.1 167.4L235.3 167.4C235.7 164.9 236 162.2 236 159.6z"/>
</symbol>
</svg>